<svg width="631" height="166" viewBox="0 0 631 166" fill="none" xmlns="http://www.w3.org/2000/svg">
<circle cx="83" cy="83" r="83" fill="#F0F0F0"/>
<g filter="url(#filter0_d_84_30)">
<circle cx="82.9999" cy="83" r="62.4804" fill="white" stroke="#0A49A8" stroke-width="15"/>
<ellipse cx="134.144" cy="118.981" rx="10.0993" ry="14.034" transform="rotate(36.6315 134.144 118.981)" fill="white"/>
<circle cx="134.265" cy="118.804" r="8.95098" fill="#0A49A8"/>
<circle cx="79.7896" cy="88.5001" r="13.064" fill="#0A49A8"/>
<rect x="74.0491" y="34.9902" width="11.3922" height="58.5882" rx="5.69608" fill="#0A49A8"/>
<rect x="127.095" y="109.205" width="10.6448" height="48.0199" rx="5.32239" transform="rotate(116.184 127.095 109.205)" fill="#0A49A8"/>
</g>
<path d="M238.76 128L220.072 94.08H214.824V128H192.936V38.144H229.672C236.755 38.144 242.771 39.3813 247.72 41.856C252.755 44.3307 256.509 47.744 258.984 52.096C261.459 56.3627 262.696 61.1413 262.696 66.432C262.696 72.4053 260.989 77.7387 257.576 82.432C254.248 87.1253 249.299 90.4533 242.728 92.416L263.464 128H238.76ZM214.824 78.592H228.392C232.403 78.592 235.389 77.6107 237.352 75.648C239.4 73.6853 240.424 70.912 240.424 67.328C240.424 63.9147 239.4 61.2267 237.352 59.264C235.389 57.3013 232.403 56.32 228.392 56.32H214.824V78.592ZM272.084 92.16C272.084 84.8213 273.449 78.3787 276.18 72.832C278.996 67.2853 282.793 63.0187 287.572 60.032C292.351 57.0453 297.684 55.552 303.572 55.552C308.607 55.552 313.001 56.576 316.756 58.624C320.596 60.672 323.54 63.36 325.588 66.688V56.576H347.476V128H325.588V117.888C323.455 121.216 320.468 123.904 316.628 125.952C312.873 128 308.479 129.024 303.444 129.024C297.641 129.024 292.351 127.531 287.572 124.544C282.793 121.472 278.996 117.163 276.18 111.616C273.449 105.984 272.084 99.4987 272.084 92.16ZM325.588 92.288C325.588 86.8267 324.052 82.5173 320.98 79.36C317.993 76.2027 314.324 74.624 309.972 74.624C305.62 74.624 301.908 76.2027 298.836 79.36C295.849 82.432 294.356 86.6987 294.356 92.16C294.356 97.6213 295.849 101.973 298.836 105.216C301.908 108.373 305.62 109.952 309.972 109.952C314.324 109.952 317.993 108.373 320.98 105.216C324.052 102.059 325.588 97.7493 325.588 92.288ZM395.439 107.52L410.927 56.576H434.223L408.879 128H381.871L356.527 56.576H379.951L395.439 107.52ZM454.444 49.152C450.604 49.152 447.447 48.0427 444.972 45.824C442.583 43.52 441.388 40.704 441.388 37.376C441.388 33.9627 442.583 31.1467 444.972 28.928C447.447 26.624 450.604 25.472 454.444 25.472C458.199 25.472 461.271 26.624 463.66 28.928C466.135 31.1467 467.372 33.9627 467.372 37.376C467.372 40.704 466.135 43.52 463.66 45.824C461.271 48.0427 458.199 49.152 454.444 49.152ZM465.324 56.576V128H443.436V56.576H465.324ZM503.074 33.28V128H481.186V33.28H503.074ZM529.944 49.152C526.104 49.152 522.947 48.0427 520.472 45.824C518.083 43.52 516.888 40.704 516.888 37.376C516.888 33.9627 518.083 31.1467 520.472 28.928C522.947 26.624 526.104 25.472 529.944 25.472C533.699 25.472 536.771 26.624 539.16 28.928C541.635 31.1467 542.872 33.9627 542.872 37.376C542.872 40.704 541.635 43.52 539.16 45.824C536.771 48.0427 533.699 49.152 529.944 49.152ZM540.824 56.576V128H518.936V56.576H540.824ZM589.198 129.024C582.201 129.024 575.886 127.531 570.254 124.544C564.707 121.557 560.313 117.291 557.07 111.744C553.913 106.197 552.334 99.712 552.334 92.288C552.334 84.9493 553.955 78.5067 557.198 72.96C560.441 67.328 564.878 63.0187 570.51 60.032C576.142 57.0453 582.457 55.552 589.454 55.552C596.451 55.552 602.766 57.0453 608.398 60.032C614.03 63.0187 618.467 67.328 621.71 72.96C624.953 78.5067 626.574 84.9493 626.574 92.288C626.574 99.6267 624.91 106.112 621.582 111.744C618.339 117.291 613.859 121.557 608.142 124.544C602.51 127.531 596.195 129.024 589.198 129.024ZM589.198 110.08C593.379 110.08 596.921 108.544 599.822 105.472C602.809 102.4 604.302 98.0053 604.302 92.288C604.302 86.5707 602.851 82.176 599.95 79.104C597.134 76.032 593.635 74.496 589.454 74.496C585.187 74.496 581.646 76.032 578.83 79.104C576.014 82.0907 574.606 86.4853 574.606 92.288C574.606 98.0053 575.971 102.4 578.702 105.472C581.518 108.544 585.017 110.08 589.198 110.08Z" fill="#0A49A8"/>
<defs>
<filter id="filter0_d_84_30" x="9.01953" y="13.0196" width="147.961" height="147.961" filterUnits="userSpaceOnUse" color-interpolation-filters="sRGB">
<feFlood flood-opacity="0" result="BackgroundImageFix"/>
<feColorMatrix in="SourceAlpha" type="matrix" values="0 0 0 0 0 0 0 0 0 0 0 0 0 0 0 0 0 0 127 0" result="hardAlpha"/>
<feOffset dy="4"/>
<feGaussianBlur stdDeviation="2"/>
<feComposite in2="hardAlpha" operator="out"/>
<feColorMatrix type="matrix" values="0 0 0 0 0 0 0 0 0 0 0 0 0 0 0 0 0 0 0.25 0"/>
<feBlend mode="normal" in2="BackgroundImageFix" result="effect1_dropShadow_84_30"/>
<feBlend mode="normal" in="SourceGraphic" in2="effect1_dropShadow_84_30" result="shape"/>
</filter>
</defs>
</svg>
